<?xml version="1.0" encoding="UTF-8"?>
<!DOCTYPE svg  PUBLIC '-//W3C//DTD SVG 1.0//EN'  'http://www.w3.org/TR/2001/REC-SVG-20010904/DTD/svg10.dtd'>
<svg width="1024px" height="1024px" version="1.0" viewBox="16.5 0 1024 1024" xmlns="http://www.w3.org/2000/svg">
<g fill="#070b0b">
<path d="m177 977.9c-2.3-0.8-6.8-1.5-10-1.4-3.3 0-6.2-0.4-6.5-1-0.4-0.5-1.9-0.9-3.4-0.9s-3.7-0.6-4.9-1.3c-1.1-0.7-3.9-2-6.2-2.7-5.5-1.9-20.6-9.1-25.8-12.4-6.9-4.4-31.4-28.2-31.5-30.5 0-0.5-1.9-3.4-4.1-6.4-2.3-3-4.1-6.2-4.1-7s-0.4-1.9-1-2.2c-0.5-0.3-1-1.4-1-2.6 0-1-0.7-2.1-1.5-2.5-0.8-0.3-1.5-1.7-1.5-3s-0.4-2.8-1-3.4c-0.5-0.5-1.1-1.9-1.3-3s-1.2-3.8-2.2-6c-0.9-2.2-1.4-4.3-1-5 0.3-0.5 0.1-1.7-0.5-2.4s-1.4-4.5-1.9-8.5c-1-9.1-1.1-721.1-0.1-730.5 0.5-3.9 1.1-7.5 1.4-8.2 0.4-0.6 0.8-2.3 1-3.7 0.2-2.5 2.6-8.8 4.6-12.8 0.5-1 0.9-2.7 0.9-3.8 0-1 0.7-2.5 1.5-3.2s1.5-2 1.5-2.7c0-0.8 1.1-3.3 2.6-5.6 1.4-2.3 2.6-4.3 2.6-4.6 0-3.2 27.8-33.5 30.6-33.5 0.4 0 1.7-0.8 2.8-1.9 4.1-3.7 29.3-16.7 32.4-16.7 0.6 0 2.4-0.6 4-1.4 1.7-0.8 6-2.1 9.7-2.7s8.8-1.9 11.4-2.7c4-1.2 54.3-1.4 353.1-1.4 343.2 0 348.6 0 354.4 2.1 3.2 1 6.5 1.8 7.3 1.4 0.8-0.3 3.1-0.1 5.1 0.6 2.1 0.6 5.1 1.3 6.8 1.5 1.8 0.2 4.1 1.1 5.4 2.1 1.3 0.8 3.2 1.5 4.1 1.5 1 0 2.7 0.4 3.7 1 0.9 0.5 4.5 2.3 7.9 3.9 9.3 4.4 13.9 7.2 19.6 11.7 7.1 5.4 21.3 19.6 24.9 24.9 1.7 2.5 3.3 4.6 3.6 5 0.7 0.5 3.1 4.5 8.2 14 1.7 2.9 4.3 8.9 6.1 13.3 6.7 16.7 6.3-10.2 6.3 384.1 0 355.2-0.1 372-3.3 375.8-0.5 0.7-0.7 1.8-0.3 2.3 0.3 0.6-0.1 2.6-0.9 4.4-0.8 1.9-2.4 5.8-3.3 8.6-0.9 2.9-2.3 5.9-2.9 6.7-0.7 0.8-2.3 3.6-3.5 6.2-3.3 6.8-6.6 12.6-9.5 16.5-4 5.3-24.1 25.8-25.2 25.8-0.6 0-3 1.5-5.4 3.4-2.3 1.9-6.5 4.4-9.3 5.8-2.8 1.3-5.8 2.8-6.6 3.3s-2.3 1.2-3.1 1.5-2.9 1.2-4.6 2-3.4 1.1-3.9 0.8c-0.4-0.3-1.4 0.2-2.1 1.1s-2.5 1.9-3.8 2.1c-1.4 0.1-4.3 0.8-6.5 1.5s-4.9 1.1-6 0.8c-1-0.3-4.9 0.3-8.5 1.4-6.2 1.9-15.4 2-353.8 1.9-308 0-347.9-0.2-351.5-1.7zm704.3-38.3c1.2-0.7 2.7-1.1 3.1-0.8 0.9 0.6 10.8-2.6 15.2-5 1.8-0.9 3.8-1.7 4.6-1.8 0.8 0 3-0.9 4.6-2.1 1.8-1 4.1-2.4 5.3-2.9 3.7-1.7 17.3-14 19-17.2 0.8-1.7 2.6-4.1 3.8-5.5 1.3-1.3 3-3.6 3.7-5.2 0.7-1.4 1.9-3.6 2.5-4.7 0.7-1.1 1.4-2.8 1.8-3.6 0.3-0.8 1-2.3 1.4-3.1 2.5-4.3 3.3-6.3 3.3-8.1 0-1.1 0.7-3.4 1.7-5.2 0.8-1.9 1.3-3.7 0.9-4.2-0.3-0.6 0.1-2.8 1-4.9 1.3-3.4 1.5-41.8 1.5-356.5 0-317.7-0.1-353.1-1.7-356.6-0.8-2.1-1.3-4.5-1-5.4 0.6-1.5-4.1-14.3-6.3-16.9-0.7-0.8-1.3-2.1-1.3-2.7s-1.5-3.4-3.4-6.1c-1.9-2.8-3.9-6.2-4.6-7.6-3-5.8-14.9-16.5-23.4-21.3-4.3-2.4-8.4-4.3-10.8-5.4-1.4-0.6-4.2-1.9-6.2-2.7-3.7-1.7-11.8-3.2-23.7-4.9-10.4-1.3-679.3-1.1-687.5 0.2-3.7 0.6-7.8 1.2-9.3 1.4-5.5 0.5-11.4 1.9-11.4 2.6 0 0.4-2.7 1.5-6 2.6-3.2 1-6.6 2.5-7.5 3.2-0.8 0.8-2 1.4-2.4 1.4-2.1 0-17.2 11.8-22.2 17.2-6 6.7-8.2 10-13.7 21-1.9 3.7-3.8 7-4.3 7.3-0.5 0.4-0.6 1.4-0.3 2.3 0.3 0.8-0.1 2.8-0.9 4.3s-1.4 3.8-1.4 5.1-0.7 4.3-1.5 6.9c-1.3 4-1.5 44.9-1.3 354 0.2 192.2 0.7 350.6 1.1 352 0.5 1.4 1.1 4.6 1.4 7.1 0.3 2.6 1.2 5.8 2 7.2 0.7 1.3 1.1 3 0.8 3.4-0.3 0.5 1 4.3 3.1 8.6 2.1 4.2 3.7 7.9 3.7 8.4 0 0.4 1.1 2.3 2.6 4.1 1.4 1.9 2.6 3.8 2.6 4.3s2 2.8 4.4 5.2 5.4 5.7 6.6 7.2c2.6 3.3 17.4 13.6 19.7 13.6 0.8 0 2.7 0.9 4.2 2 3.7 2.7 9.7 5 16.6 6.3 3.1 0.5 8.4 1.7 11.7 2.4 9 1.9 694.9 0.8 698.3-1.1z"/>
<path d="m448 798c0-0.5-1.2-1.4-2.9-2.1-1.5-0.6-4.1-3.3-5.7-5.9-2.6-4.2-2.8-5.5-2.8-15.8 0-11.3 0-11.3 4.4-15.9 3.6-3.6 5.5-4.7 9.2-5.3 2.6-0.4 82.2-0.7 176.9-0.7 191.8-0.1 178.1-0.6 182.9 6.8 1.2 2 2.3 4 2.3 4.6 0 0.5 0.5 1 1 1 0.6 0 1 4 1 9.9 0 10.9-0.5 12.1-8.7 20.1-4 4-4 4-181 4-101 0-176.8-0.4-176.8-0.9z"/>
<path d="m447.4 626.6c-2.7-1-7.6-5.6-7.6-6.9 0-0.6-0.7-1.7-1.5-2.4-1.2-1-1.5-3.8-1.5-12.9s0.3-11.9 1.5-12.9c0.8-0.7 1.5-1.9 1.5-2.6s1.8-2.7 3.9-4.2c3.8-3 3.8-3 181.4-3 176 0 177.5 0 180.2 2.1 1.5 1.1 4 3.9 5.5 6.3 2.5 3.8 2.7 5.2 2.7 14.5 0 11.7-2 16.6-8.2 20.7-3.5 2.4-3.5 2.4-179.6 2.3-96.8 0-177-0.4-178.3-0.9z"/>
</g>
<g fill="#6cb04e">
<path d="m282.3 852.3c-5.4-2.2-13.4-8.9-30.5-25.5-4.3-4.2-12.6-12.1-18.5-17.4-12.8-11.9-14.6-15-14.6-26.2 0-6.9 0.4-8.9 2.7-13 1.5-2.6 4.5-6 6.7-7.5 3.5-2.5 5.1-2.9 11.4-2.9 8.6 0 11.1 1.5 23.2 13.1 8.5 8.2 20.3 18.8 22.3 20 3.9 2.6 7.5-0.4 25.6-20.7 4.9-5.4 10.7-11.8 13.1-14.1 2.5-2.4 4.4-4.6 4.4-5.1 0-0.3 0.9-1.7 2.1-2.9 1-1.1 5-5.4 8.6-9.4 3.6-3.9 9-10.1 11.9-13.5 6.9-8.4 15.8-13.7 22.7-13.8 5.6 0 18.8 9.1 18.8 13 0 0.6 0.7 1.8 1.5 2.5 1.1 0.9 1.5 3.3 1.5 8.3 0 8.9-1.5 12.1-10.5 22.1-2.2 2.3-3.9 4.4-3.9 4.7s-3.8 4.4-8.6 9.3c-4.6 4.9-10.8 11.6-13.6 15-2.9 3.4-7.1 8.3-9.5 10.8-2.4 2.6-6.7 7.4-9.8 10.7-3 3.4-8.3 9.2-11.7 12.8s-6.3 7-6.5 7.4c-0.2 0.5-2.3 3-4.6 5.4-2.4 2.5-6.1 6.5-8.3 8.9-2.1 2.4-5.8 5.4-8.2 6.6-5 2.6-13.4 3.3-17.9 1.5z"/>
<path d="m278.2 681.2c-1.7-1-3.8-2.3-4.6-2.7-0.8-0.3-2.5-1.7-3.7-2.8-13-12.9-31.4-30.2-37.2-35.2-10.2-8.7-15.8-17.5-15.9-24.8 0-3 3.6-12.6 5.6-14.5 0.8-0.9 2-2.2 2.4-2.9 0.5-0.7 3.3-2.5 6.2-4 5.5-2.9 13-3.9 14.2-1.9 0.3 0.6 2.6 2 5 3.1 2.4 1 7.9 5.7 12.5 10.3 4.4 4.5 8.3 8.3 8.5 8.3s2.1 1.8 4.2 3.9c4.4 4.4 11 9.5 12.5 9.5 1 0 9.4-8.1 14-13.5 1.5-2 7.6-8.6 13.4-14.8 10.2-11 13.6-14.7 19.7-21.6 1.8-1.9 5.2-5.8 7.7-8.6 2.6-2.8 6.5-7.3 8.8-10.1 8.5-10.3 15.8-15 24.1-15.1 2.9 0 5.4 0.4 5.4 0.9s1.3 1.4 2.9 2c4.3 1.5 10.4 7.2 12.2 11.5 2 4.7 2.1 15.3 0.2 18.9-0.8 1.5-4.2 5.8-7.6 9.4-3.3 3.7-8.2 9.2-10.7 12.2-2.6 3-7.1 7.9-10.2 11.1-3 3.2-7.6 8.4-10.2 11.5-2.7 3.1-8.8 9.9-13.6 15-4.9 5.2-11.1 12.1-13.9 15.4-8.3 9.9-26.7 28-30.5 29.8-4.9 2.5-17 2.3-21.2-0.4z"/>
</g>
</svg>
