<svg xmlns="http://www.w3.org/2000/svg" width="1024" height="1024" viewBox="0 0 1024 1024"><defs><linearGradient id="a" x1="0%" x2="100%" y1="0%" y2="100%"><stop offset="0%" stop-color="#c026d3" stop-opacity="1"/><stop offset="35%" stop-color="#a855f7" stop-opacity="1"/><stop offset="65%" stop-color="#8b5cf6" stop-opacity="1"/><stop offset="85%" stop-color="#6366f1" stop-opacity="1"/><stop offset="100%" stop-color="#3b82f6" stop-opacity="1"/></linearGradient></defs><path fill="url(#a)" d="M513.404 867.482c-12.765 1.426-25.072.712-37.394.384-29.547-.787-58.125-8.256-87.208-12.184-18.653-2.52-36.69 1.893-54.29 8.14-19.144 6.795-37.35 15.97-56.79 22.007-23.04 7.155-46.49 11.584-70.7 10.432-17.974-.856-35.031-4.943-48.666-17.695-11.147-10.426-16.827-23.683-18.731-38.718-2.36-18.633 2.859-35.856 9.31-52.952 7.57-20.065 15.661-39.97 19.915-61.13 5.582-27.768 4.816-55.429-.663-83.136-4.24-21.44-11.7-41.93-17.725-62.845-6.823-23.69-11.302-47.747-12.957-72.412-6.44-95.976 20.076-182.005 78.42-258.073 40.193-52.402 91.41-90.855 152.578-115.946 32.029-13.138 65.265-21.516 99.596-25.835 19.035-2.394 38.131-3.503 57.263-2.691 71.176 3.02 137.343 22.45 196.848 62.183 81.6 54.488 133.837 129.733 157.09 225.05 4.885 20.022 7.815 40.329 9.255 60.933 1.165 16.666 1.428 33.347.492 49.92-2.295 40.627-11.426 79.889-26.603 117.666-21.81 54.29-53.371 102.189-96.564 141.714-51.247 46.896-109.873 80.622-178.552 95.207-24.248 5.15-48.575 9.55-73.924 9.98M231.83 347.228c-21.537 48.45-32.846 98.844-29.693 152.164 1.243 21.01 4.874 41.535 10.635 61.684 9.033 31.595 20.118 62.647 23.115 95.732 1.641 18.122 2.155 36.214.238 54.282-2.462 23.213-8.046 45.779-15.421 67.908-4.633 13.902-9.677 27.642-15.728 41.005-2.739 6.049-.335 9.985 6.248 10.597.993.092 1.999.054 2.998.043 15.453-.172 30.409-3.46 44.935-8.269 19.108-6.325 37.912-13.562 56.913-20.217 34.24-11.993 68.965-16.321 104.838-7.585 21.341 5.197 43.181 7.662 65.168 8.002 24.177.374 48.09-2.246 71.848-6.785 50.796-9.705 96.763-30.337 137.859-61.484 50.967-38.628 87.112-88.404 109.442-148.323 12.859-34.505 18.922-70.277 19.162-106.902.123-18.884-2.035-37.754-5.578-56.45-12.035-63.51-41.246-117.93-87.305-162.914-53.542-52.29-118.495-80.757-192.719-88.218-26.808-2.695-53.495-.488-79.983 4.202-46.84 8.294-89.487 26.585-128.27 53.992-42.972 30.367-75.304 69.725-98.702 117.536"/></svg>