<svg xmlns="http://www.w3.org/2000/svg" width="1024" height="1024" viewBox="0 0 1024 1024"><defs><linearGradient id="a" x1="0%" x2="100%" y1="0%" y2="100%"><stop offset="0%" stop-color="#ff60e0" stop-opacity="1"/><stop offset="35%" stop-color="#ff82ca" stop-opacity="1"/><stop offset="65%" stop-color="#ff9a85" stop-opacity="1"/><stop offset="85%" stop-color="#ffb060" stop-opacity="1"/><stop offset="100%" stop-color="#ffcf40" stop-opacity="1"/></linearGradient></defs><path fill="url(#a)" d="M513.404 867.482c-12.765 1.426-25.072.712-37.394.384-29.547-.787-58.125-8.256-87.208-12.184-18.653-2.52-36.69 1.893-54.29 8.14-19.144 6.795-37.35 15.97-56.79 22.007-23.04 7.155-46.49 11.584-70.7 10.432-17.974-.856-35.031-4.943-48.666-17.695-11.147-10.426-16.827-23.683-18.731-38.718-2.36-18.633 2.859-35.856 9.31-52.952 7.57-20.065 15.661-39.97 19.915-61.13 5.582-27.768 4.816-55.429-.663-83.136-4.24-21.44-11.7-41.93-17.725-62.845-6.823-23.69-11.302-47.747-12.957-72.412-6.44-95.976 20.076-182.005 78.42-258.073 40.193-52.402 91.41-90.855 152.578-115.946 32.029-13.138 65.265-21.516 99.596-25.835 19.035-2.394 38.131-3.503 57.263-2.691 71.176 3.02 137.343 22.45 196.848 62.183 81.6 54.488 133.837 129.733 157.09 225.05 4.885 20.022 7.815 40.329 9.255 60.933 1.165 16.666 1.428 33.347.492 49.92-2.295 40.627-11.426 79.889-26.603 117.666-21.81 54.29-53.371 102.189-96.564 141.714-51.247 46.896-109.873 80.622-178.552 95.207-24.248 5.15-48.575 9.55-73.924 9.98M231.83 347.228c-21.537 48.45-32.846 98.844-29.693 152.164 1.243 21.01 4.874 41.535 10.635 61.684 9.033 31.595 20.118 62.647 23.115 95.732 1.641 18.122 2.155 36.214.238 54.282-2.462 23.213-8.046 45.779-15.421 67.908-4.633 13.902-9.677 27.642-15.728 41.005-2.739 6.049-.335 9.985 6.248 10.597.993.092 1.999.054 2.998.043 15.453-.172 30.409-3.46 44.935-8.269 19.108-6.325 37.912-13.562 56.913-20.217 34.24-11.993 68.965-16.321 104.838-7.585 21.341 5.197 43.181 7.662 65.168 8.002 24.177.374 48.09-2.246 71.848-6.785 50.796-9.705 96.763-30.337 137.859-61.484 50.967-38.628 87.112-88.404 109.442-148.323 12.859-34.505 18.922-70.277 19.162-106.902.123-18.884-2.035-37.754-5.578-56.45-12.035-63.51-41.246-117.93-87.305-162.914-53.542-52.29-118.495-80.757-192.719-88.218-26.808-2.695-53.495-.488-79.983 4.202-46.84 8.294-89.487 26.585-128.27 53.992-42.972 30.367-75.304 69.725-98.702 117.536"/><path d="M445.338 471.852c-2.161 21.937-8.395 41.864-22.435 58.698-8.19 9.821-18.474 16.433-31.477 17.438-11.297.873-21.298-2.996-29.875-10.33-15.309-13.09-22.744-30.6-26.626-49.691-4.817-23.687-3.056-47.031 6.565-69.4 7.199-16.736 17.528-30.921 35.828-36.67 18.463-5.8 33.397 1.437 45.556 14.892 12.789 14.151 18.638 31.559 21.567 50.166 1.283 8.148.656 16.278.897 24.897M580.706 471.769c-.932-19.553 1.9-37.95 10.091-55.34 4.22-8.958 9.543-17.152 16.976-23.85 19.944-17.972 45.373-16.377 63.1 3.909 11.386 13.028 17.983 28.33 21.081 45.133 4.718 25.582 1.936 50.295-9.79 73.744-3.222 6.442-7.262 12.361-12.26 17.55-20.327 21.108-48.142 20.148-67.017-2.343-10.978-13.081-17.127-28.39-20.175-45.039-.806-4.404-1.336-8.858-2.006-13.764"/></svg>