<?xml version="1.0" encoding="UTF-8" standalone="no"?>
<svg viewBox="0 0 1024 1024" xmlns="http://www.w3.org/2000/svg">
  <!-- Only the eyes from the ghost icon -->
  <path fill="#000000" opacity="1.000000" stroke="none" 
    d="
  M580.705505,471.768982 
    C579.774292,452.215668 582.605713,433.818390 590.797302,416.428589 
    C595.017090,407.470551 600.340088,399.277374 607.772888,392.579346 
    C627.716553,374.607117 653.145935,376.202209 670.873657,396.487671 
    C682.259460,409.516235 688.856201,424.818604 691.954407,441.620636 
    C696.671631,467.203156 693.889832,491.915649 682.163452,515.365479 
    C678.942444,521.806519 674.902405,527.726013 669.904602,532.915588 
    C649.577148,554.023315 621.761536,553.062683 602.886780,530.571594 
    C591.909119,517.490662 585.759705,502.182648 582.712219,485.533203 
    C581.906189,481.129486 581.375549,476.675323 580.705505,471.768982 
  z"/>
  
  <path fill="#000000" opacity="1.000000" stroke="none" 
    d="
  M445.338440,471.851562 
    C443.176758,493.788635 436.942841,513.715637 422.903229,530.550293 
    C414.712860,540.371216 404.428955,546.983215 391.426178,547.988098 
    C380.129303,548.861206 370.128235,544.991821 361.551147,537.658081 
    C346.242279,524.568481 338.807251,507.057800 334.925110,487.966980 
    C330.108337,464.279877 331.868622,440.935730 341.490295,418.566833 
    C348.688934,401.831055 359.017548,387.645721 377.318176,381.896362 
    C395.780701,376.096130 410.714722,383.333527 422.873901,396.788544 
    C435.662811,410.940399 441.511841,428.347931 444.441101,446.954803 
    C445.723877,455.103149 445.097168,463.233063 445.338440,471.851562 
  z"/>
</svg>