<?xml version="1.0" encoding="UTF-8"?>
<svg
  viewBox="0 0 1024 1024"
  xmlns="http://www.w3.org/2000/svg"
  role="img"
  aria-hidden="true"
>
  <defs>
    <linearGradient
      id="ziplistIconGradient"
      x1="150"
      y1="130"
      x2="860"
      y2="820"
      gradientUnits="userSpaceOnUse"
    >
      <stop offset="0" stop-color="#ffe86b" />
      <stop offset="0.42" stop-color="#ff9a8c" />
      <stop offset="1" stop-color="#76ead7" />
    </linearGradient>
  </defs>

  <path
    d="M264 132H760C845 132 898 185 898 270V552C898 637 845 690 760 690H616L543 803C529 825 495 825 481 803L408 690H264C179 690 126 637 126 552V270C126 185 179 132 264 132Z"
    fill="url(#ziplistIconGradient)"
    stroke="#000000"
    stroke-width="54"
    stroke-linejoin="round"
  />

  <g
    fill="none"
    stroke="#000000"
    stroke-linecap="round"
    stroke-linejoin="round"
  >
    <rect x="312" y="542" width="44" height="44" rx="6" stroke-width="18" />
    <path d="M410 564H704" stroke-width="21" />
    <rect x="312" y="618" width="44" height="44" rx="6" stroke-width="18" />
    <path d="M410 640H704" stroke-width="21" />
  </g>
</svg>
