<?xml version="1.0" encoding="UTF-8"?>
<svg
  viewBox="96 56 832 872"
  xmlns="http://www.w3.org/2000/svg"
  role="img"
  aria-labelledby="ziplist-favicon-title"
>
  <title id="ziplist-favicon-title">ZipList</title>
  <defs>
    <linearGradient
      id="ziplistIconGradient"
      x1="150"
      y1="130"
      x2="860"
      y2="820"
      gradientUnits="userSpaceOnUse"
    >
      <stop offset="0" stop-color="#ffe86b" />
      <stop offset="0.42" stop-color="#ff9a8c" />
      <stop offset="1" stop-color="#76ead7" />
    </linearGradient>
  </defs>

  <path
    d="M308 118H716C815 118 878 181 878 280V574C878 673 815 736 716 736H600L542 846C529 870 495 870 482 846L424 736H308C209 736 146 673 146 574V280C146 181 209 118 308 118Z"
    fill="url(#ziplistIconGradient)"
    stroke="#000000"
    stroke-width="54"
    stroke-linejoin="round"
  />

  <ellipse cx="424" cy="326" rx="39" ry="60" fill="#000000" />
  <ellipse cx="600" cy="326" rx="39" ry="60" fill="#000000" />

  <g
    fill="none"
    stroke="#000000"
    stroke-linecap="round"
    stroke-linejoin="round"
  >
    <rect x="334" y="520" width="44" height="44" rx="6" stroke-width="18" />
    <path d="M430 542H690" stroke-width="21" />
    <rect x="334" y="598" width="44" height="44" rx="6" stroke-width="18" />
    <path d="M430 620H690" stroke-width="21" />
  </g>
</svg>
