<?xml version="1.0" standalone="no"?>
<!DOCTYPE svg PUBLIC "-//W3C//DTD SVG 20010904//EN"
 "http://www.w3.org/TR/2001/REC-SVG-20010904/DTD/svg10.dtd">
<svg version="1.0" xmlns="http://www.w3.org/2000/svg"
 width="1184.000000pt" height="864.000000pt" viewBox="0 0 1184.000000 864.000000"
 preserveAspectRatio="xMidYMid meet">
<defs>
  <linearGradient id="grad1" x1="0%" y1="0%" x2="100%" y2="100%">
    <stop offset="0%" style="stop-color:#FFD1A9;stop-opacity:1" />
    <stop offset="100%" style="stop-color:#FFA07A;stop-opacity:1" />
  </linearGradient>
</defs>
<g transform="translate(0.000000,864.000000) scale(0.100000,-0.100000)" stroke="none">
<!-- Bubble Shape - Filled with Gradient -->
<path fill="url(#grad1)" d="M3845 7089 c-188 -25 -364 -92 -494 -188 -194 -144 -331 -342 -409
-590 l-27 -86 -3 -1690 c-2 -1164 1 -1716 8 -1772 47 -360 316 -700 659 -832
169 -65 153 -64 961 -69 l735 -4 68 -101 c109 -165 250 -363 277 -392 39 -41
139 -85 221 -96 128 -18 229 13 318 96 44 41 79 89 279 373 l87 123 680 0
c728 -1 800 3 945 51 353 116 610 392 702 754 l23 89 0 1715 0 1715 -23 94
c-52 205 -127 343 -266 488 -54 57 -129 123 -165 147 -89 59 -230 121 -349
154 l-97 27 -2030 1 c-1169 1 -2060 -2 -2100 -7z m4145 -376 c200 -49 391
-209 475 -398 64 -145 59 -9 63 -1780 2 -1156 0 -1633 -8 -1690 -41 -290 -204
-490 -483 -593 l-72 -27 -790 -5 c-567 -4 -797 -8 -815 -17 -30 -13 -89 -73
-127 -129 -15 -22 -90 -131 -166 -242 -123 -181 -141 -202 -166 -202 -29 0
-63 30 -97 85 -34 54 -286 420 -303 439 -9 10 -34 28 -56 40 -40 21 -47 21
-825 26 -884 6 -813 0 -984 88 -158 81 -266 208 -339 399 l-22 58 -3 1683 c-2
1654 -2 1684 18 1763 35 141 132 291 240 373 46 34 154 92 232 123 40 17 169
18 2023 23 1089 3 2016 4 2060 2 44 -1 109 -10 145 -19z"/>

<!-- Eyes - Filled with Black -->
<path fill="#000000" d="M4964 5872 c-97 -34 -178 -110 -231 -217 -61 -121 -68 -156 -68 -330
0 -143 3 -168 24 -230 55 -163 125 -255 229 -303 75 -34 184 -36 253 -5 74 34
145 111 190 208 53 113 72 203 72 345 0 191 -52 338 -155 443 -94 95 -207 128
-314 89z"/>
<path fill="#000000" d="M6670 5877 c-135 -38 -252 -181 -297 -365 -38 -155 -11 -390 60 -526
31 64 -121 174 -207 283 -221 141 -19 302 101 369 276 59 152 67 321 25 484 -28
32 109 -62 175 -127 245 -91 98 -206 137 -313 107z"/>

<!-- List Items - Filled with Black -->
<path fill="#000000" d="M4225 3875 c-25 -24 -25 -25 -25 -223 0 -190 1 -200 21 -218 20 -18
37 -19 221 -17 173 2 203 4 219 19 17 16 19 34 19 225 0 203 0 208 -22 223
-18 13 -57 16 -216 16 -192 0 -193 0 -217 -25z m351 -109 c2 -12 4 -68 2 -126
l-3 -105 -132 -3 -132 -3 4 128 c2 70 4 128 4 129 1 0 57 1 126 1 119 0 126
-1 131 -21z"/>
<path fill="#000000" d="M4982 3716 c-24 -13 -32 -27 -32 -58 0 -17 7 -31 19 -38 13 -7 439
-10 1309 -10 1236 0 1290 1 1305 18 25 27 21 58 -10 82 l-28 22 -1273 -3
c-743 -3 -1280 -8 -1290 -13z"/>
<path fill="#000000" d="M4233 3176 l-27 -24 -4 -200 c-6 -264 -27 -242 241 -242 185 0 205 2
220 18 15 16 17 47 17 225 l0 206 -26 20 c-25 20 -40 21 -210 21 -178 0 -184
-1 -211 -24z m345 -228 l3 -128 -135 0 -134 0 3 128 c1 70 3 128 4 130 0 1 58
1 129 0 l127 -3 3 -127z"/>
<path fill="#000000" d="M4972 2984 c-14 -10 -22 -26 -22 -44 0 -64 -86 -60 1325 -60 1010 0
1285 3 1298 13 28 21 32 62 8 86 l-21 21 -1283 0 c-1145 0 -1285 -2 -1305 -16z"/>
</g>
</svg>
