<svg xmlns="http://www.w3.org/2000/svg" width="1024" height="1024" viewBox="0 0 1024 1024"><defs><linearGradient id="a" x1="0%" x2="100%" y1="0%" y2="100%"><stop offset="0%" stop-color="#ff60e0" stop-opacity="1"/><stop offset="35%" stop-color="#ff82ca" stop-opacity="1"/><stop offset="65%" stop-color="#ff9a85" stop-opacity="1"/><stop offset="85%" stop-color="#ffb060" stop-opacity="1"/><stop offset="100%" stop-color="#ffcf40" stop-opacity="1"/></linearGradient></defs><path fill="url(#a)" d="M177 977.9c-2.3-.8-6.8-1.5-10-1.4-3.3 0-6.2-.4-6.5-1-.4-.5-1.9-.9-3.4-.9s-3.7-.6-4.9-1.3c-1.1-.7-3.9-2-6.2-2.7-5.5-1.9-20.6-9.1-25.8-12.4-6.9-4.4-31.4-28.2-31.5-30.5 0-.5-1.9-3.4-4.1-6.4-2.3-3-4.1-6.2-4.1-7s-.4-1.9-1-2.2c-.5-.3-1-1.4-1-2.6 0-1-.7-2.1-1.5-2.5-.8-.3-1.5-1.7-1.5-3s-.4-2.8-1-3.4c-.5-.5-1.1-1.9-1.3-3s-1.2-3.8-2.2-6c-.9-2.2-1.4-4.3-1-5 .3-.5.1-1.7-.5-2.4s-1.4-4.5-1.9-8.5c-1-9.1-1.1-721.1-.1-730.5.5-3.9 1.1-7.5 1.4-8.2.4-.6.8-2.3 1-3.7.2-2.5 2.6-8.8 4.6-12.8.5-1 .9-2.7.9-3.8 0-1 .7-2.5 1.5-3.2s1.5-2 1.5-2.7c0-.8 1.1-3.3 2.6-5.6 1.4-2.3 2.6-4.3 2.6-4.6 0-3.2 27.8-33.5 30.6-33.5.4 0 1.7-.8 2.8-1.9 4.1-3.7 29.3-16.7 32.4-16.7.6 0 2.4-.6 4-1.4 1.7-.8 6-2.1 9.7-2.7s8.8-1.9 11.4-2.7c4-1.2 54.3-1.4 353.1-1.4 343.2 0 348.6 0 354.4 2.1 3.2 1 6.5 1.8 7.3 1.4.8-.3 3.1-.1 5.1.6 2.1.6 5.1 1.3 6.8 1.5 1.8.2 4.1 1.1 5.4 2.1 1.3.8 3.2 1.5 4.1 1.5 1 0 2.7.4 3.7 1 .9.5 4.5 2.3 7.9 3.9 9.3 4.4 13.9 7.2 19.6 11.7 7.1 5.4 21.3 19.6 24.9 24.9 1.7 2.5 3.3 4.6 3.6 5 .7.5 3.1 4.5 8.2 14 1.7 2.9 4.3 8.9 6.1 13.3 6.7 16.7 6.3-10.2 6.3 384.1 0 355.2-.1 372-3.3 375.8-.5.7-.7 1.8-.3 2.3.3.6-.1 2.6-.9 4.4-.8 1.9-2.4 5.8-3.3 8.6-.9 2.9-2.3 5.9-2.9 6.7-.7.8-2.3 3.6-3.5 6.2-3.3 6.8-6.6 12.6-9.5 16.5-4 5.3-24.1 25.8-25.2 25.8-.6 0-3 1.5-5.4 3.4-2.3 1.9-6.5 4.4-9.3 5.8-2.8 1.3-5.8 2.8-6.6 3.3s-2.3 1.2-3.1 1.5-2.9 1.2-4.6 2-3.4 1.1-3.9.8c-.4-.3-1.4.2-2.1 1.1s-2.5 1.9-3.8 2.1c-1.4.1-4.3.8-6.5 1.5s-4.9 1.1-6 .8c-1-.3-4.9.3-8.5 1.4-6.2 1.9-15.4 2-353.8 1.9-308 0-347.9-.2-351.5-1.7zm704.3-38.3c1.2-.7 2.7-1.1 3.1-.8.9.6 10.8-2.6 15.2-5 1.8-.9 3.8-1.7 4.6-1.8.8 0 3-.9 4.6-2.1 1.8-1 4.1-2.4 5.3-2.9 3.7-1.7 17.3-14 19-17.2.8-1.7 2.6-4.1 3.8-5.5 1.3-1.3 3-3.6 3.7-5.2.7-1.4 1.9-3.6 2.5-4.7.7-1.1 1.4-2.8 1.8-3.6.3-.8 1-2.3 1.4-3.1 2.5-4.3 3.3-6.3 3.3-8.1 0-1.1.7-3.4 1.7-5.2.8-1.9 1.3-3.7.9-4.2-.3-.6.1-2.8 1-4.9 1.3-3.4 1.5-41.8 1.5-356.5 0-317.7-.1-353.1-1.7-356.6-.8-2.1-1.3-4.5-1-5.4.6-1.5-4.1-14.3-6.3-16.9-.7-.8-1.3-2.1-1.3-2.7s-1.5-3.4-3.4-6.1c-1.9-2.8-3.9-6.2-4.6-7.6-3-5.8-14.9-16.5-23.4-21.3-4.3-2.4-8.4-4.3-10.8-5.4-1.4-.6-4.2-1.9-6.2-2.7-3.7-1.7-11.8-3.2-23.7-4.9-10.4-1.3-679.3-1.1-687.5.2-3.7.6-7.8 1.2-9.3 1.4-5.5.5-11.4 1.9-11.4 2.6 0 .4-2.7 1.5-6 2.6-3.2 1-6.6 2.5-7.5 3.2-.8.8-2 1.4-2.4 1.4-2.1 0-17.2 11.8-22.2 17.2-6 6.7-8.2 10-13.7 21-1.9 3.7-3.8 7-4.3 7.3-.5.4-.6 1.4-.3 2.3.3.8-.1 2.8-.9 4.3s-1.4 3.8-1.4 5.1-.7 4.3-1.5 6.9c-1.3 4-1.5 44.9-1.3 354 .2 192.2.7 350.6 1.1 352 .5 1.4 1.1 4.6 1.4 7.1.3 2.6 1.2 5.8 2 7.2.7 1.3 1.1 3 .8 3.4-.3.5 1 4.3 3.1 8.6 2.1 4.2 3.7 7.9 3.7 8.4 0 .4 1.1 2.3 2.6 4.1 1.4 1.9 2.6 3.8 2.6 4.3s2 2.8 4.4 5.2 5.4 5.7 6.6 7.2c2.6 3.3 17.4 13.6 19.7 13.6.8 0 2.7.9 4.2 2 3.7 2.7 9.7 5 16.6 6.3 3.1.5 8.4 1.7 11.7 2.4 9 1.9 694.9.8 698.3-1.1z"/><path d="M177 977.9c-2.3-.8-6.8-1.5-10-1.4-3.3 0-6.2-.4-6.5-1-.4-.5-1.9-.9-3.4-.9s-3.7-.6-4.9-1.3c-1.1-.7-3.9-2-6.2-2.7-5.5-1.9-20.6-9.1-25.8-12.4-6.9-4.4-31.4-28.2-31.5-30.5 0-.5-1.9-3.4-4.1-6.4-2.3-3-4.1-6.2-4.1-7s-.4-1.9-1-2.2c-.5-.3-1-1.4-1-2.6 0-1-.7-2.1-1.5-2.5-.8-.3-1.5-1.7-1.5-3s-.4-2.8-1-3.4c-.5-.5-1.1-1.9-1.3-3s-1.2-3.8-2.2-6c-.9-2.2-1.4-4.3-1-5 .3-.5.1-1.7-.5-2.4s-1.4-4.5-1.9-8.5c-1-9.1-1.1-721.1-.1-730.5.5-3.9 1.1-7.5 1.4-8.2.4-.6.8-2.3 1-3.7.2-2.5 2.6-8.8 4.6-12.8.5-1 .9-2.7.9-3.8 0-1 .7-2.5 1.5-3.2s1.5-2 1.5-2.7c0-.8 1.1-3.3 2.6-5.6 1.4-2.3 2.6-4.3 2.6-4.6 0-3.2 27.8-33.5 30.6-33.5.4 0 1.7-.8 2.8-1.9 4.1-3.7 29.3-16.7 32.4-16.7.6 0 2.4-.6 4-1.4 1.7-.8 6-2.1 9.7-2.7s8.8-1.9 11.4-2.7c4-1.2 54.3-1.4 353.1-1.4 343.2 0 348.6 0 354.4 2.1 3.2 1 6.5 1.8 7.3 1.4.8-.3 3.1-.1 5.1.6 2.1.6 5.1 1.3 6.8 1.5 1.8.2 4.1 1.1 5.4 2.1 1.3.8 3.2 1.5 4.1 1.5 1 0 2.7.4 3.7 1 .9.5 4.5 2.3 7.9 3.9 9.3 4.4 13.9 7.2 19.6 11.7 7.1 5.4 21.3 19.6 24.9 24.9 1.7 2.5 3.3 4.6 3.6 5 .7.5 3.1 4.5 8.2 14 1.7 2.9 4.3 8.9 6.1 13.3 6.7 16.7 6.3-10.2 6.3 384.1 0 355.2-.1 372-3.3 375.8-.5.7-.7 1.8-.3 2.3.3.6-.1 2.6-.9 4.4-.8 1.9-2.4 5.8-3.3 8.6-.9 2.9-2.3 5.9-2.9 6.7-.7.8-2.3 3.6-3.5 6.2-3.3 6.8-6.6 12.6-9.5 16.5-4 5.3-24.1 25.8-25.2 25.8-.6 0-3 1.5-5.4 3.4-2.3 1.9-6.5 4.4-9.3 5.8-2.8 1.3-5.8 2.8-6.6 3.3s-2.3 1.2-3.1 1.5-2.9 1.2-4.6 2-3.4 1.1-3.9.8c-.4-.3-1.4.2-2.1 1.1s-2.5 1.9-3.8 2.1c-1.4.1-4.3.8-6.5 1.5s-4.9 1.1-6 .8c-1-.3-4.9.3-8.5 1.4-6.2 1.9-15.4 2-353.8 1.9-308 0-347.9-.2-351.5-1.7zm704.3-38.3c1.2-.7 2.7-1.1 3.1-.8.9.6 10.8-2.6 15.2-5 1.8-.9 3.8-1.7 4.6-1.8.8 0 3-.9 4.6-2.1 1.8-1 4.1-2.4 5.3-2.9 3.7-1.7 17.3-14 19-17.2.8-1.7 2.6-4.1 3.8-5.5 1.3-1.3 3-3.6 3.7-5.2.7-1.4 1.9-3.6 2.5-4.7.7-1.1 1.4-2.8 1.8-3.6.3-.8 1-2.3 1.4-3.1 2.5-4.3 3.3-6.3 3.3-8.1 0-1.1.7-3.4 1.7-5.2.8-1.9 1.3-3.7.9-4.2-.3-.6.1-2.8 1-4.9 1.3-3.4 1.5-41.8 1.5-356.5 0-317.7-.1-353.1-1.7-356.6-.8-2.1-1.3-4.5-1-5.4.6-1.5-4.1-14.3-6.3-16.9-.7-.8-1.3-2.1-1.3-2.7s-1.5-3.4-3.4-6.1c-1.9-2.8-3.9-6.2-4.6-7.6-3-5.8-14.9-16.5-23.4-21.3-4.3-2.4-8.4-4.3-10.8-5.4-1.4-.6-4.2-1.9-6.2-2.7-3.7-1.7-11.8-3.2-23.7-4.9-10.4-1.3-679.3-1.1-687.5.2-3.7.6-7.8 1.2-9.3 1.4-5.5.5-11.4 1.9-11.4 2.6 0 .4-2.7 1.5-6 2.6-3.2 1-6.6 2.5-7.5 3.2-.8.8-2 1.4-2.4 1.4-2.1 0-17.2 11.8-22.2 17.2-6 6.7-8.2 10-13.7 21-1.9 3.7-3.8 7-4.3 7.3-.5.4-.6 1.4-.3 2.3.3.8-.1 2.8-.9 4.3s-1.4 3.8-1.4 5.1-.7 4.3-1.5 6.9c-1.3 4-1.5 44.9-1.3 354 .2 192.2.7 350.6 1.1 352 .5 1.4 1.1 4.6 1.4 7.1.3 2.6 1.2 5.8 2 7.2.7 1.3 1.1 3 .8 3.4-.3.5 1 4.3 3.1 8.6 2.1 4.2 3.7 7.9 3.7 8.4 0 .4 1.1 2.3 2.6 4.1 1.4 1.9 2.6 3.8 2.6 4.3s2 2.8 4.4 5.2 5.4 5.7 6.6 7.2c2.6 3.3 17.4 13.6 19.7 13.6.8 0 2.7.9 4.2 2 3.7 2.7 9.7 5 16.6 6.3 3.1.5 8.4 1.7 11.7 2.4 9 1.9 694.9.8 698.3-1.1z"/><path d="M445.338 371.852c-2.161 21.937-8.395 41.864-22.435 58.698-8.19 9.821-18.474 16.433-31.477 17.438-11.297.873-21.298-2.996-29.875-10.33-15.309-13.09-22.744-30.6-26.626-49.691-4.817-23.687-3.056-47.031 6.565-69.4 7.199-16.736 17.528-30.921 35.828-36.67 18.463-5.8 33.397 1.437 45.556 14.892 12.789 14.151 18.638 31.559 21.567 50.166 1.283 8.148.656 16.278.897 24.897M580.706 371.852c-.932-19.554 1.9-37.951 10.091-55.34 4.22-8.959 9.543-17.152 16.976-23.85 19.944-17.972 45.373-16.377 63.1 3.908 11.386 13.029 17.983 28.331 21.081 45.133 4.718 25.583 1.936 50.295-9.79 73.745-3.222 6.441-7.262 12.36-12.26 17.55-20.327 21.108-48.143 20.147-67.017-2.344-10.978-13.08-17.127-28.389-20.175-45.038-.806-4.404-1.337-8.858-2.007-13.764"/></svg>