<?xml version="1.0" encoding="utf-8" ?>
<svg baseProfile="full" height="100%" version="1.1" viewBox="0 0 1740 1392" width="100%" xmlns="http://www.w3.org/2000/svg" xmlns:ev="http://www.w3.org/2001/xml-events" xmlns:xlink="http://www.w3.org/1999/xlink">
  <defs>
    <linearGradient id="mintGradient" x1="0%" x2="100%" y1="0%" y2="100%">
      <stop offset="0%" stop-color="#0ac5ef" />
      <stop offset="35%" stop-color="#22d3ed" />
      <stop offset="65%" stop-color="#2dd4bf" />
      <stop offset="85%" stop-color="#4ade80" />
      <stop offset="100%" stop-color="#a3e635" />
    </linearGradient>
    <style>
      /* Synchronized with peach animations for consistency */
      @keyframes mintShimmer {
        0% { opacity: 1.0; }
        50% { opacity: 0.6; }
        100% { opacity: 1.0; }
      }
      
      @keyframes mintFlow {
        0% { 
          filter: hue-rotate(-15deg) saturate(1.3) brightness(1);
          transform: scale(1.0);
        }
        20% { 
          filter: hue-rotate(0deg) saturate(1.5) brightness(1.15);
          transform: scale(1.005);
        }
        50% { 
          filter: hue-rotate(15deg) saturate(1.8) brightness(1.2);
          transform: scale(1.012);
        }
        80% { 
          filter: hue-rotate(0deg) saturate(1.5) brightness(1.15);
          transform: scale(1.005);
        }
        100% { 
          filter: hue-rotate(-15deg) saturate(1.3) brightness(1);
          transform: scale(1.0);
        }
      }
      
      /* Add color animation to each gradient stop */
      @keyframes blueFlow {
        0% { 
          stop-color: #0ac5ef;
          stop-opacity: 0.9;
        }
        50% { 
          stop-color: #08b7ff; /* More vivid blue */
          stop-opacity: 0.7;
        }
        100% { 
          stop-color: #0ac5ef;
          stop-opacity: 0.9;
        }
      }
      
      @keyframes cyanFlow {
        0% { 
          stop-color: #22d3ed;
          stop-opacity: 0.8;
        }
        50% { 
          stop-color: #0be7e7; /* Brighter cyan */
          stop-opacity: 1;
        }
        100% { 
          stop-color: #22d3ed;
          stop-opacity: 0.8;
        }
      }
      
      @keyframes tealFlow {
        0% { 
          stop-color: #2dd4bf;
          stop-opacity: 0.9;
        }
        50% { 
          stop-color: #36e2ba; /* Brighter teal */
          stop-opacity: 0.7;
        }
        100% { 
          stop-color: #2dd4bf;
          stop-opacity: 0.9;
        }
      }
      
      @keyframes greenFlow {
        0% { 
          stop-color: #4ade80;
          stop-opacity: 0.9;
        }
        50% { 
          stop-color: #39f76f; /* More vivid green */
          stop-opacity: 0.7;
        }
        100% { 
          stop-color: #4ade80;
          stop-opacity: 0.9;
        }
      }
      
      @keyframes limeFlow {
        0% { 
          stop-color: #a3e635;
          stop-opacity: 0.9;
        }
        50% { 
          stop-color: #baff1a; /* More vivid lime */
          stop-opacity: 0.7;
        }
        100% { 
          stop-color: #a3e635;
          stop-opacity: 0.9;
        }
      }
      
      @keyframes mintGradientShift {
        0% {
          x1: 0%;
          y1: 0%;
          x2: 100%;
          y2: 100%;
        }
        25% {
          x1: 3%;
          y1: 1%;
          x2: 97%;
          y2: 101%;
        }
        50% {
          x1: 4%;
          y1: 3%;
          x2: 96%;
          y2: 98%;
        }
        75% {
          x1: 1%;
          y1: 3%;
          x2: 99%;
          y2: 97%;
        }
        100% {
          x1: 0%;
          y1: 0%;
          x2: 100%;
          y2: 100%;
        }
      }
      
      #mintGradient {
        animation: mintGradientShift 12s infinite ease-in-out;
      }
      
      #ghost-shape {
        animation: 
          mintShimmer 5s infinite ease-in-out,
          mintFlow 9s infinite cubic-bezier(0.4, 0, 0.6, 1);
        transform-origin: center bottom;
      }
      
      /* Animate each stop with its own timing for a pseudo-mesh effect */
      #mintGradient stop:nth-child(1) {
        animation: blueFlow 5s infinite ease-in-out;
      }
      #mintGradient stop:nth-child(2) {
        animation: cyanFlow 5s 0.3s infinite ease-in-out;
      }
      #mintGradient stop:nth-child(3) {
        animation: tealFlow 5s 0.7s infinite ease-in-out;
      }
      #mintGradient stop:nth-child(4) {
        animation: greenFlow 5s 1.1s infinite ease-in-out;
      }
      #mintGradient stop:nth-child(5) {
        animation: limeFlow 5s 1.5s infinite ease-in-out alternate;
      }
    </style>
  </defs>
  <path id="ghost-shape" d="M 837,121 L 836,122 L 824,122 L 823,123 L 813,123 L 812,124 L 804,124 L 803,125 L 796,125 L 795,126 L 789,126 L 788,127 L 782,127 L 781,128 L 776,128 L 775,129 L 770,129 L 769,130 L 765,130 L 764,131 L 759,131 L 758,132 L 754,132 L 753,133 L 749,133 L 748,134 L 745,134 L 744,135 L 740,135 L 739,136 L 736,136 L 735,137 L 732,137 L 731,138 L 728,138 L 727,139 L 724,139 L 723,140 L 720,140 L 719,141 L 716,141 L 715,142 L 713,142 L 712,143 L 709,143 L 708,144 L 706,144 L 705,145 L 702,145 L 701,146 L 699,146 L 698,147 L 696,147 L 695,148 L 693,148 L 692,149 L 690,149 L 689,150 L 687,150 L 686,151 L 684,151 L 683,152 L 681,152 L 680,153 L 678,153 L 677,154 L 675,154 L 674,155 L 672,155 L 671,156 L 669,156 L 668,157 L 667,157 L 666,158 L 664,158 L 663,159 L 661,159 L 660,160 L 659,160 L 658,161 L 656,161 L 655,162 L 654,162 L 653,163 L 651,163 L 650,164 L 649,164 L 648,165 L 647,165 L 646,166 L 644,166 L 643,167 L 642,167 L 641,168 L 640,168 L 639,169 L 637,169 L 636,170 L 635,170 L 634,171 L 633,171 L 632,172 L 631,172 L 630,173 L 628,173 L 627,174 L 626,174 L 625,175 L 624,175 L 623,176 L 622,176 L 621,177 L 620,177 L 619,178 L 618,178 L 617,179 L 616,179 L 615,180 L 614,180 L 613,181 L 612,181 L 611,182 L 610,182 L 609,183 L 608,183 L 607,184 L 606,184 L 605,185 L 604,185 L 603,186 L 602,186 L 601,187 L 600,187 L 599,188 L 598,188 L 597,189 L 596,189 L 595,190 L 594,190 L 593,191 L 592,191 L 590,193 L 589,193 L 588,194 L 587,194 L 586,195 L 585,195 L 584,196 L 583,196 L 581,198 L 580,198 L 579,199 L 578,199 L 576,201 L 575,201 L 574,202 L 573,202 L 571,204 L 570,204 L 569,205 L 568,205 L 566,207 L 565,207 L 564,208 L 563,208 L 561,210 L 560,210 L 558,212 L 557,212 L 555,214 L 554,214 L 552,216 L 551,216 L 549,218 L 548,218 L 546,220 L 545,220 L 543,222 L 542,222 L 540,224 L 539,224 L 536,227 L 535,227 L 533,229 L 532,229 L 529,232 L 528,232 L 525,235 L 524,235 L 521,238 L 520,238 L 516,242 L 515,242 L 511,246 L 510,246 L 506,250 L 505,250 L 499,256 L 498,256 L 492,262 L 491,262 L 479,274 L 478,274 L 460,292 L 460,293 L 448,305 L 448,306 L 441,313 L 441,314 L 436,319 L 436,320 L 431,325 L 431,326 L 427,330 L 427,331 L 423,335 L 423,336 L 420,339 L 420,340 L 417,343 L 417,344 L 414,347 L 414,348 L 411,351 L 411,352 L 409,354 L 409,355 L 406,358 L 406,359 L 404,361 L 404,362 L 402,364 L 402,365 L 400,367 L 400,368 L 398,370 L 398,371 L 396,373 L 396,374 L 394,376 L 394,377 L 392,379 L 392,380 L 390,382 L 390,383 L 388,385 L 388,386 L 387,387 L 387,388 L 385,390 L 385,391 L 383,393 L 383,394 L 382,395 L 382,396 L 380,398 L 380,399 L 379,400 L 379,401 L 378,402 L 378,403 L 376,405 L 376,406 L 375,407 L 375,408 L 374,409 L 374,410 L 372,412 L 372,413 L 371,414 L 371,415 L 370,416 L 370,417 L 369,418 L 369,419 L 368,420 L 368,421 L 366,423 L 366,424 L 365,425 L 365,426 L 364,427 L 364,428 L 363,429 L 363,430 L 362,431 L 362,432 L 361,433 L 361,434 L 360,435 L 360,436 L 359,437 L 359,438 L 358,439 L 358,440 L 357,441 L 357,442 L 356,443 L 356,444 L 355,445 L 355,446 L 354,447 L 354,449 L 353,450 L 353,451 L 352,452 L 352,453 L 351,454 L 351,455 L 350,456 L 350,457 L 349,458 L 349,460 L 348,461 L 348,462 L 347,463 L 347,464 L 346,465 L 346,467 L 345,468 L 345,469 L 344,470 L 344,471 L 343,472 L 343,474 L 342,475 L 342,476 L 341,477 L 341,479 L 340,480 L 340,481 L 339,482 L 339,484 L 338,485 L 338,487 L 337,488 L 337,489 L 336,490 L 336,492 L 335,493 L 335,495 L 334,496 L 334,498 L 333,499 L 333,500 L 332,501 L 332,503 L 331,504 L 331,506 L 330,507 L 330,509 L 329,510 L 329,512 L 328,513 L 328,516 L 327,517 L 327,519 L 326,520 L 326,522 L 325,523 L 325,526 L 324,527 L 324,529 L 323,530 L 323,533 L 322,534 L 322,536 L 321,537 L 321,540 L 320,541 L 320,544 L 319,545 L 319,548 L 318,549 L 318,552 L 317,553 L 317,556 L 316,557 L 316,561 L 315,562 L 315,565 L 314,566 L 314,570 L 313,571 L 313,575 L 312,576 L 312,581 L 311,582 L 311,586 L 310,587 L 310,593 L 309,594 L 309,599 L 308,600 L 308,606 L 307,607 L 307,614 L 306,615 L 306,623 L 305,624 L 305,634 L 304,635 L 304,649 L 303,650 L 303,716 L 304,717 L 304,731 L 305,732 L 305,742 L 306,743 L 306,751 L 307,752 L 307,758 L 308,759 L 308,765 L 309,766 L 309,771 L 310,772 L 310,777 L 311,778 L 311,783 L 312,784 L 312,788 L 313,789 L 313,793 L 314,794 L 314,797 L 315,798 L 315,802 L 316,803 L 316,806 L 317,807 L 317,810 L 318,811 L 318,814 L 319,815 L 319,818 L 320,819 L 320,822 L 321,823 L 321,826 L 322,827 L 322,829 L 323,830 L 323,833 L 324,834 L 324,836 L 325,837 L 325,840 L 326,841 L 326,843 L 327,844 L 327,846 L 328,847 L 328,850 L 329,851 L 329,853 L 330,854 L 330,856 L 331,857 L 331,859 L 332,860 L 332,863 L 333,864 L 333,866 L 334,867 L 334,869 L 335,870 L 335,872 L 336,873 L 336,876 L 337,877 L 337,879 L 338,880 L 338,882 L 339,883 L 339,886 L 340,887 L 340,889 L 341,890 L 341,892 L 342,893 L 342,896 L 343,897 L 343,900 L 344,901 L 344,903 L 345,904 L 345,907 L 346,908 L 346,911 L 347,912 L 347,915 L 348,916 L 348,920 L 349,921 L 349,925 L 350,926 L 350,930 L 351,931 L 351,935 L 352,936 L 352,941 L 353,942 L 353,948 L 354,949 L 354,956 L 355,957 L 355,965 L 356,966 L 356,981 L 357,982 L 357,1005 L 356,1006 L 356,1021 L 355,1022 L 355,1030 L 354,1031 L 354,1037 L 353,1038 L 353,1044 L 352,1045 L 352,1049 L 351,1050 L 351,1054 L 350,1055 L 350,1058 L 349,1059 L 349,1063 L 348,1064 L 348,1067 L 347,1068 L 347,1070 L 346,1071 L 346,1074 L 345,1075 L 345,1078 L 344,1079 L 344,1081 L 343,1082 L 343,1084 L 342,1085 L 342,1087 L 341,1088 L 341,1090 L 340,1091 L 340,1093 L 339,1094 L 339,1096 L 338,1097 L 338,1099 L 337,1100 L 337,1102 L 336,1103 L 336,1105 L 335,1106 L 335,1108 L 334,1109 L 334,1110 L 333,1111 L 333,1113 L 332,1114 L 332,1116 L 331,1117 L 331,1119 L 330,1120 L 330,1121 L 329,1122 L 329,1124 L 328,1125 L 328,1127 L 327,1128 L 327,1129 L 326,1130 L 326,1132 L 325,1133 L 325,1134 L 324,1135 L 324,1137 L 323,1138 L 323,1140 L 322,1141 L 322,1142 L 321,1143 L 321,1145 L 320,1146 L 320,1148 L 319,1149 L 319,1151 L 318,1152 L 318,1153 L 317,1154 L 317,1156 L 316,1157 L 316,1159 L 315,1160 L 315,1162 L 314,1163 L 314,1166 L 313,1167 L 313,1169 L 312,1170 L 312,1172 L 311,1173 L 311,1177 L 310,1178 L 310,1181 L 309,1182 L 309,1186 L 308,1187 L 308,1192 L 307,1193 L 307,1202 L 306,1203 L 306,1214 L 307,1215 L 307,1225 L 308,1226 L 308,1231 L 309,1232 L 309,1235 L 310,1236 L 310,1239 L 311,1240 L 311,1243 L 312,1244 L 312,1246 L 313,1247 L 313,1248 L 314,1249 L 314,1251 L 315,1252 L 315,1253 L 316,1254 L 316,1255 L 317,1256 L 317,1257 L 318,1258 L 318,1259 L 319,1260 L 319,1261 L 320,1262 L 320,1263 L 322,1265 L 322,1266 L 324,1268 L 324,1269 L 328,1273 L 328,1274 L 338,1284 L 339,1284 L 343,1288 L 344,1288 L 346,1290 L 347,1290 L 349,1292 L 350,1292 L 352,1294 L 353,1294 L 354,1295 L 355,1295 L 356,1296 L 357,1296 L 358,1297 L 359,1297 L 360,1298 L 362,1298 L 363,1299 L 364,1299 L 365,1300 L 367,1300 L 368,1301 L 370,1301 L 371,1302 L 374,1302 L 375,1303 L 377,1303 L 378,1304 L 382,1304 L 383,1305 L 387,1305 L 388,1306 L 394,1306 L 395,1307 L 405,1307 L 406,1308 L 433,1308 L 434,1307 L 446,1307 L 447,1306 L 454,1306 L 455,1305 L 461,1305 L 462,1304 L 467,1304 L 468,1303 L 472,1303 L 473,1302 L 477,1302 L 478,1301 L 482,1301 L 483,1300 L 486,1300 L 487,1299 L 491,1299 L 492,1298 L 494,1298 L 495,1297 L 498,1297 L 499,1296 L 502,1296 L 503,1295 L 505,1295 L 506,1294 L 509,1294 L 510,1293 L 512,1293 L 513,1292 L 515,1292 L 516,1291 L 518,1291 L 519,1290 L 521,1290 L 522,1289 L 524,1289 L 525,1288 L 527,1288 L 528,1287 L 530,1287 L 531,1286 L 532,1286 L 533,1285 L 535,1285 L 536,1284 L 538,1284 L 539,1283 L 540,1283 L 541,1282 L 543,1282 L 544,1281 L 545,1281 L 546,1280 L 548,1280 L 549,1279 L 550,1279 L 551,1278 L 553,1278 L 554,1277 L 555,1277 L 556,1276 L 557,1276 L 558,1275 L 560,1275 L 561,1274 L 562,1274 L 563,1273 L 565,1273 L 566,1272 L 567,1272 L 568,1271 L 569,1271 L 570,1270 L 572,1270 L 573,1269 L 574,1269 L 575,1268 L 577,1268 L 578,1267 L 579,1267 L 580,1266 L 582,1266 L 583,1265 L 584,1265 L 585,1264 L 587,1264 L 588,1263 L 589,1263 L 590,1262 L 592,1262 L 593,1261 L 595,1261 L 596,1260 L 597,1260 L 598,1259 L 600,1259 L 601,1258 L 603,1258 L 604,1257 L 606,1257 L 607,1256 L 609,1256 L 610,1255 L 612,1255 L 613,1254 L 616,1254 L 617,1253 L 619,1253 L 620,1252 L 623,1252 L 624,1251 L 627,1251 L 628,1250 L 631,1250 L 632,1249 L 636,1249 L 637,1248 L 642,1248 L 643,1247 L 650,1247 L 651,1246 L 678,1246 L 679,1247 L 685,1247 L 686,1248 L 692,1248 L 693,1249 L 698,1249 L 699,1250 L 704,1250 L 705,1251 L 710,1251 L 711,1252 L 716,1252 L 717,1253 L 721,1253 L 722,1254 L 727,1254 L 728,1255 L 733,1255 L 734,1256 L 738,1256 L 739,1257 L 744,1257 L 745,1258 L 750,1258 L 751,1259 L 756,1259 L 757,1260 L 763,1260 L 764,1261 L 770,1261 L 771,1262 L 778,1262 L 779,1263 L 787,1263 L 788,1264 L 799,1264 L 800,1265 L 825,1265 L 826,1266 L 854,1266 L 855,1265 L 867,1265 L 868,1264 L 889,1264 L 890,1263 L 900,1263 L 901,1262 L 909,1262 L 910,1261 L 917,1261 L 918,1260 L 924,1260 L 925,1259 L 931,1259 L 932,1258 L 937,1258 L 938,1257 L 943,1257 L 944,1256 L 948,1256 L 949,1255 L 953,1255 L 954,1254 L 959,1254 L 960,1253 L 964,1253 L 965,1252 L 969,1252 L 970,1251 L 973,1251 L 974,1250 L 978,1250 L 979,1249 L 983,1249 L 984,1248 L 987,1248 L 988,1247 L 991,1247 L 992,1246 L 995,1246 L 996,1245 L 999,1245 L 1000,1244 L 1003,1244 L 1004,1243 L 1007,1243 L 1008,1242 L 1011,1242 L 1012,1241 L 1014,1241 L 1015,1240 L 1018,1240 L 1019,1239 L 1021,1239 L 1022,1238 L 1024,1238 L 1025,1237 L 1027,1237 L 1028,1236 L 1031,1236 L 1032,1235 L 1034,1235 L 1035,1234 L 1037,1234 L 1038,1233 L 1040,1233 L 1041,1232 L 1042,1232 L 1043,1231 L 1045,1231 L 1046,1230 L 1048,1230 L 1049,1229 L 1051,1229 L 1052,1228 L 1053,1228 L 1054,1227 L 1056,1227 L 1057,1226 L 1059,1226 L 1060,1225 L 1061,1225 L 1062,1224 L 1064,1224 L 1065,1223 L 1066,1223 L 1067,1222 L 1069,1222 L 1070,1221 L 1071,1221 L 1072,1220 L 1074,1220 L 1075,1219 L 1076,1219 L 1077,1218 L 1078,1218 L 1079,1217 L 1081,1217 L 1082,1216 L 1083,1216 L 1084,1215 L 1085,1215 L 1086,1214 L 1087,1214 L 1088,1213 L 1089,1213 L 1090,1212 L 1092,1212 L 1093,1211 L 1094,1211 L 1095,1210 L 1096,1210 L 1097,1209 L 1098,1209 L 1099,1208 L 1100,1208 L 1101,1207 L 1102,1207 L 1103,1206 L 1104,1206 L 1105,1205 L 1106,1205 L 1107,1204 L 1108,1204 L 1109,1203 L 1110,1203 L 1111,1202 L 1112,1202 L 1113,1201 L 1114,1201 L 1115,1200 L 1116,1200 L 1117,1199 L 1118,1199 L 1120,1197 L 1121,1197 L 1122,1196 L 1123,1196 L 1124,1195 L 1125,1195 L 1126,1194 L 1127,1194 L 1128,1193 L 1129,1193 L 1131,1191 L 1132,1191 L 1133,1190 L 1134,1190 L 1135,1189 L 1136,1189 L 1138,1187 L 1139,1187 L 1140,1186 L 1141,1186 L 1143,1184 L 1144,1184 L 1145,1183 L 1146,1183 L 1148,1181 L 1149,1181 L 1150,1180 L 1151,1180 L 1153,1178 L 1154,1178 L 1156,1176 L 1157,1176 L 1159,1174 L 1160,1174 L 1161,1173 L 1162,1173 L 1164,1171 L 1165,1171 L 1167,1169 L 1168,1169 L 1170,1167 L 1171,1167 L 1174,1164 L 1175,1164 L 1177,1162 L 1178,1162 L 1180,1160 L 1181,1160 L 1184,1157 L 1185,1157 L 1187,1155 L 1188,1155 L 1191,1152 L 1192,1152 L 1195,1149 L 1196,1149 L 1199,1146 L 1200,1146 L 1203,1143 L 1204,1143 L 1208,1139 L 1209,1139 L 1213,1135 L 1214,1135 L 1218,1131 L 1219,1131 L 1224,1126 L 1225,1126 L 1231,1120 L 1232,1120 L 1240,1112 L 1241,1112 L 1252,1101 L 1253,1101 L 1275,1079 L 1275,1078 L 1286,1067 L 1286,1066 L 1292,1060 L 1292,1059 L 1298,1053 L 1298,1052 L 1302,1048 L 1302,1047 L 1306,1043 L 1306,1042 L 1310,1038 L 1310,1037 L 1313,1034 L 1313,1033 L 1316,1030 L 1316,1029 L 1319,1026 L 1319,1025 L 1321,1023 L 1321,1022 L 1324,1019 L 1324,1018 L 1326,1016 L 1326,1015 L 1328,1013 L 1328,1012 L 1331,1009 L 1331,1008 L 1333,1006 L 1333,1005 L 1335,1003 L 1335,1002 L 1336,1001 L 1336,1000 L 1338,998 L 1338,997 L 1340,995 L 1340,994 L 1342,992 L 1342,991 L 1343,990 L 1343,989 L 1345,987 L 1345,986 L 1346,985 L 1346,984 L 1348,982 L 1348,981 L 1349,980 L 1349,979 L 1351,977 L 1351,976 L 1352,975 L 1352,974 L 1354,972 L 1354,971 L 1355,970 L 1355,969 L 1356,968 L 1356,967 L 1357,966 L 1357,965 L 1359,963 L 1359,962 L 1360,961 L 1360,960 L 1361,959 L 1361,958 L 1362,957 L 1362,956 L 1363,955 L 1363,954 L 1364,953 L 1364,952 L 1365,951 L 1365,950 L 1367,948 L 1367,947 L 1368,946 L 1368,945 L 1369,944 L 1369,943 L 1370,942 L 1370,941 L 1371,940 L 1371,939 L 1372,938 L 1372,937 L 1373,936 L 1373,934 L 1374,933 L 1374,932 L 1375,931 L 1375,930 L 1376,929 L 1376,928 L 1377,927 L 1377,926 L 1378,925 L 1378,924 L 1379,923 L 1379,922 L 1380,921 L 1380,919 L 1381,918 L 1381,917 L 1382,916 L 1382,915 L 1383,914 L 1383,913 L 1384,912 L 1384,910 L 1385,909 L 1385,908 L 1386,907 L 1386,906 L 1387,905 L 1387,903 L 1388,902 L 1388,901 L 1389,900 L 1389,898 L 1390,897 L 1390,896 L 1391,895 L 1391,893 L 1392,892 L 1392,891 L 1393,890 L 1393,888 L 1394,887 L 1394,886 L 1395,885 L 1395,883 L 1396,882 L 1396,880 L 1397,879 L 1397,878 L 1398,877 L 1398,875 L 1399,874 L 1399,872 L 1400,871 L 1400,869 L 1401,868 L 1401,866 L 1402,865 L 1402,864 L 1403,863 L 1403,861 L 1404,860 L 1404,858 L 1405,857 L 1405,854 L 1406,853 L 1406,851 L 1407,850 L 1407,848 L 1408,847 L 1408,845 L 1409,844 L 1409,841 L 1410,840 L 1410,838 L 1411,837 L 1411,834 L 1412,833 L 1412,831 L 1413,830 L 1413,827 L 1414,826 L 1414,823 L 1415,822 L 1415,819 L 1416,818 L 1416,815 L 1417,814 L 1417,811 L 1418,810 L 1418,807 L 1419,806 L 1419,802 L 1420,801 L 1420,797 L 1421,796 L 1421,792 L 1422,791 L 1422,787 L 1423,786 L 1423,782 L 1424,781 L 1424,776 L 1425,775 L 1425,769 L 1426,768 L 1426,763 L 1427,762 L 1427,755 L 1428,754 L 1428,746 L 1429,745 L 1429,736 L 1430,735 L 1430,724 L 1431,723 L 1431,702 L 1432,701 L 1432,672 L 1431,671 L 1431,650 L 1430,649 L 1430,636 L 1429,635 L 1429,625 L 1428,624 L 1428,616 L 1427,615 L 1427,607 L 1426,606 L 1426,600 L 1425,599 L 1425,594 L 1424,593 L 1424,587 L 1423,586 L 1423,582 L 1422,581 L 1422,576 L 1421,575 L 1421,571 L 1420,570 L 1420,567 L 1419,566 L 1419,562 L 1418,561 L 1418,558 L 1417,557 L 1417,553 L 1416,552 L 1416,549 L 1415,548 L 1415,545 L 1414,544 L 1414,541 L 1413,540 L 1413,538 L 1412,537 L 1412,534 L 1411,533 L 1411,530 L 1410,529 L 1410,527 L 1409,526 L 1409,523 L 1408,522 L 1408,520 L 1407,519 L 1407,517 L 1406,516 L 1406,513 L 1405,512 L 1405,510 L 1404,509 L 1404,507 L 1403,506 L 1403,504 L 1402,503 L 1402,501 L 1401,500 L 1401,498 L 1400,497 L 1400,495 L 1399,494 L 1399,492 L 1398,491 L 1398,490 L 1397,489 L 1397,487 L 1396,486 L 1396,484 L 1395,483 L 1395,481 L 1394,480 L 1394,479 L 1393,478 L 1393,476 L 1392,475 L 1392,474 L 1391,473 L 1391,471 L 1390,470 L 1390,468 L 1389,467 L 1389,466 L 1388,465 L 1388,464 L 1387,463 L 1387,461 L 1386,460 L 1386,459 L 1385,458 L 1385,456 L 1384,455 L 1384,454 L 1383,453 L 1383,452 L 1382,451 L 1382,450 L 1381,449 L 1381,447 L 1380,446 L 1380,445 L 1379,444 L 1379,443 L 1378,442 L 1378,441 L 1377,440 L 1377,439 L 1376,438 L 1376,437 L 1375,436 L 1375,434 L 1374,433 L 1374,432 L 1373,431 L 1373,430 L 1372,429 L 1372,428 L 1371,427 L 1371,426 L 1370,425 L 1370,424 L 1369,423 L 1369,422 L 1368,421 L 1368,420 L 1366,418 L 1366,417 L 1365,416 L 1365,415 L 1364,414 L 1364,413 L 1363,412 L 1363,411 L 1362,410 L 1362,409 L 1361,408 L 1361,407 L 1359,405 L 1359,404 L 1358,403 L 1358,402 L 1357,401 L 1357,400 L 1355,398 L 1355,397 L 1354,396 L 1354,395 L 1353,394 L 1353,393 L 1351,391 L 1351,390 L 1350,389 L 1350,388 L 1348,386 L 1348,385 L 1346,383 L 1346,382 L 1345,381 L 1345,380 L 1343,378 L 1343,377 L 1341,375 L 1341,374 L 1339,372 L 1339,371 L 1337,369 L 1337,368 L 1335,366 L 1335,365 L 1333,363 L 1333,362 L 1331,360 L 1331,359 L 1329,357 L 1329,356 L 1326,353 L 1326,352 L 1323,349 L 1323,348 L 1321,346 L 1321,345 L 1317,341 L 1317,340 L 1314,337 L 1314,336 L 1310,332 L 1310,331 L 1306,327 L 1306,326 L 1301,321 L 1301,320 L 1295,314 L 1295,313 L 1286,304 L 1286,303 L 1255,272 L 1254,272 L 1245,263 L 1244,263 L 1238,257 L 1237,257 L 1231,251 L 1230,251 L 1226,247 L 1225,247 L 1221,243 L 1220,243 L 1217,240 L 1216,240 L 1212,236 L 1211,236 L 1208,233 L 1207,233 L 1204,230 L 1203,230 L 1201,228 L 1200,228 L 1197,225 L 1196,225 L 1194,223 L 1193,223 L 1190,220 L 1189,220 L 1187,218 L 1186,218 L 1184,216 L 1183,216 L 1181,214 L 1180,214 L 1178,212 L 1177,212 L 1175,210 L 1174,210 L 1172,208 L 1171,208 L 1170,207 L 1169,207 L 1167,205 L 1166,205 L 1164,203 L 1163,203 L 1162,202 L 1161,202 L 1159,200 L 1158,200 L 1157,199 L 1156,199 L 1154,197 L 1153,197 L 1152,196 L 1151,196 L 1150,195 L 1149,195 L 1147,193 L 1146,193 L 1145,192 L 1144,192 L 1143,191 L 1142,191 L 1140,189 L 1139,189 L 1138,188 L 1137,188 L 1136,187 L 1135,187 L 1134,186 L 1133,186 L 1132,185 L 1131,185 L 1130,184 L 1129,184 L 1128,183 L 1127,183 L 1126,182 L 1125,182 L 1124,181 L 1123,181 L 1122,180 L 1121,180 L 1120,179 L 1119,179 L 1118,178 L 1117,178 L 1116,177 L 1115,177 L 1114,176 L 1113,176 L 1112,175 L 1111,175 L 1110,174 L 1109,174 L 1108,173 L 1107,173 L 1106,172 L 1105,172 L 1104,171 L 1102,171 L 1101,170 L 1100,170 L 1099,169 L 1098,169 L 1097,168 L 1096,168 L 1095,167 L 1093,167 L 1092,166 L 1091,166 L 1090,165 L 1089,165 L 1088,164 L 1086,164 L 1085,163 L 1084,163 L 1083,162 L 1081,162 L 1080,161 L 1079,161 L 1078,160 L 1076,160 L 1075,159 L 1074,159 L 1073,158 L 1071,158 L 1070,157 L 1068,157 L 1067,156 L 1066,156 L 1065,155 L 1063,155 L 1062,154 L 1060,154 L 1059,153 L 1057,153 L 1056,152 L 1054,152 L 1053,151 L 1051,151 L 1050,150 L 1048,150 L 1047,149 L 1045,149 L 1044,148 L 1042,148 L 1041,147 L 1039,147 L 1038,146 L 1035,146 L 1034,145 L 1032,145 L 1031,144 L 1029,144 L 1028,143 L 1025,143 L 1024,142 L 1022,142 L 1021,141 L 1018,141 L 1017,140 L 1014,140 L 1013,139 L 1010,139 L 1009,138 L 1006,138 L 1005,137 L 1002,137 L 1001,136 L 997,136 L 996,135 L 993,135 L 992,134 L 988,134 L 987,133 L 983,133 L 982,132 L 978,132 L 977,131 L 973,131 L 972,130 L 967,130 L 966,129 L 961,129 L 960,128 L 955,128 L 954,127 L 948,127 L 947,126 L 940,126 L 939,125 L 932,125 L 931,124 L 922,124 L 921,123 L 911,123 L 910,122 L 897,122 L 896,121 Z" fill="url(#mintGradient)" fill-rule="evenodd" stroke="none">
  </path>
</svg>